<?xml version="1.0" standalone="no"?>
<!DOCTYPE svg PUBLIC "-//W3C//DTD SVG 20010904//EN"
 "http://www.w3.org/TR/2001/REC-SVG-20010904/DTD/svg10.dtd">
<svg version="1.0" xmlns="http://www.w3.org/2000/svg"
 width="619.000000pt" height="160.000000pt" viewBox="0 0 619.000000 160.000000"
 preserveAspectRatio="xMidYMid meet">

<g transform="translate(0.000000,160.000000) scale(0.100000,-0.100000)"
fill="#000000" stroke="none">
<path d="M4540 1554 c0 -3 18 -31 40 -63 22 -31 40 -61 40 -67 0 -17 -54 -63
-88 -75 -41 -14 -68 2 -113 68 -30 44 -33 45 -42 26 -13 -30 0 -123 23 -161
10 -17 43 -46 72 -65 96 -62 117 -99 217 -373 58 -157 65 -172 94 -186 39 -18
135 -43 141 -37 3 2 -40 125 -95 272 -54 147 -104 296 -111 331 -12 61 -13 63
-33 50 -37 -24 -94 -44 -99 -35 -4 5 14 21 38 35 63 37 106 92 106 136 0 45
-44 101 -103 129 -41 20 -87 28 -87 15z"/>
<path d="M5050 1542 c-23 -8 -30 -23 -30 -74 0 -41 2 -46 19 -41 11 3 28 0 38
-6 15 -9 14 -10 -13 -11 -18 0 -41 -8 -53 -17 -21 -17 -22 -25 -19 -183 l3
-165 55 -10 55 -10 -70 -3 c-81 -4 -105 -19 -105 -68 l0 -32 78 -7 c108 -9
111 -13 12 -14 -95 -1 -110 -9 -110 -56 0 -35 15 -55 41 -55 10 0 19 -7 21
-17 2 -14 15 -16 81 -14 102 3 100 -15 -3 -24 -44 -4 -80 -12 -80 -18 0 -6 27
-8 80 -4 44 4 80 3 80 -2 0 -11 -51 -21 -106 -21 -23 0 -46 -4 -49 -10 -4 -6
23 -10 74 -10 47 0 81 -4 81 -10 0 -5 -19 -10 -42 -10 -61 0 -118 -11 -118
-22 0 -6 32 -7 80 -2 54 4 80 3 80 -4 0 -6 -15 -13 -32 -15 -29 -3 -27 -4 10
-5 l42 -2 0 94 0 94 30 6 c27 5 30 9 30 45 0 21 -6 44 -13 50 -8 6 -12 23 -9
41 6 45 -5 75 -33 88 l-25 12 0 173 c0 137 -3 177 -15 193 -8 11 -14 42 -15
76 0 60 -16 82 -50 70z"/>
<path d="M5417 1533 c-19 -19 -5 -33 34 -33 79 0 297 -64 262 -77 -7 -2 -21 0
-32 6 -59 32 -281 66 -281 43 0 -4 38 -13 84 -20 87 -13 193 -45 211 -64 7 -8
4 -9 -10 -5 -11 3 -50 15 -88 26 -37 11 -98 23 -135 27 l-68 6 -19 -80 c-10
-44 -15 -87 -12 -95 4 -10 25 -14 77 -15 39 -1 79 -6 88 -12 13 -9 8 -10 -24
-6 l-41 6 -6 -58 c-14 -124 -64 -273 -111 -330 -28 -33 -52 -43 -43 -18 9 23
-20 27 -45 6 -22 -18 -22 -19 -3 -21 17 -1 16 -2 -5 -8 -21 -6 -28 -19 -47
-86 -39 -141 -42 -126 24 -123 46 2 57 6 54 18 -12 44 -12 73 -1 100 42 101
185 91 220 -15 14 -42 20 -43 57 -11 28 24 28 25 8 40 -14 12 -15 14 -4 10 24
-8 32 11 13 30 -18 18 -34 21 -34 6 0 -22 -19 -8 -29 21 -16 46 -13 112 8 209
19 83 55 187 70 203 5 4 25 -2 45 -14 20 -11 42 -19 50 -16 11 4 76 232 76
265 0 5 -27 21 -60 36 -87 39 -263 70 -283 49z m168 -183 c37 -41 -14 -107
-63 -81 -29 16 -37 47 -18 76 20 30 56 32 81 5z"/>
<path d="M73 1248 c7 -4 28 -8 47 -8 68 -1 65 13 65 -327 0 -169 -4 -320 -8
-335 -6 -23 -13 -28 -40 -29 -17 -1 -43 -5 -57 -9 -15 -5 51 -8 159 -9 101 -1
182 1 180 4 -3 2 -30 8 -59 12 -46 7 -55 12 -61 33 -4 14 -7 159 -8 322 -1
328 -1 328 62 328 93 0 167 -60 186 -149 18 -86 -12 -156 -85 -198 -21 -13
-32 -23 -23 -23 22 0 78 39 102 72 25 34 34 122 17 172 -16 50 -57 95 -105
117 -38 18 -39 19 -11 19 45 0 105 -40 134 -90 36 -61 38 -157 4 -212 -36 -57
-82 -81 -163 -82 -37 -1 -72 -6 -76 -10 -4 -5 28 -6 72 -4 168 10 266 115 237
256 -15 71 -41 105 -102 131 -46 20 -70 22 -264 24 -118 1 -209 -1 -203 -5z
m162 -353 c0 -316 -1 -340 -17 -343 -17 -3 -18 18 -18 343 0 325 1 346 18 343
16 -3 17 -27 17 -343z"/>
<path d="M861 993 c-57 -148 -122 -307 -143 -354 -39 -86 -40 -86 -86 -96 -40
-9 -26 -10 93 -10 136 -1 138 0 75 11 -76 13 -76 12 -30 135 l28 76 155 3 156
3 20 -38 c19 -38 51 -137 51 -158 0 -7 -29 -16 -67 -22 -61 -9 -50 -10 107
-11 106 0 167 3 155 8 -11 5 -29 9 -40 9 -26 1 -77 104 -223 451 -85 203 -111
256 -127 258 -17 2 -33 -32 -124 -265z m202 7 c41 -102 100 -245 131 -317 45
-110 52 -133 38 -133 -22 0 -277 606 -266 634 4 9 10 14 14 9 3 -4 41 -91 83
-193z m-22 -68 c27 -62 49 -119 49 -126 0 -9 -23 -15 -68 -19 -76 -8 -202 2
-202 14 0 10 68 182 105 264 l27 60 20 -39 c11 -22 42 -91 69 -154z"/>
<path d="M2185 1182 c-4 -41 -5 -75 -3 -78 3 -2 12 22 21 55 l16 59 53 6 c52
7 184 -6 197 -19 9 -9 8 -551 -2 -606 l-8 -46 -57 -10 c-48 -9 -28 -10 128
-10 167 0 179 1 125 11 -59 11 -60 12 -67 51 -4 22 -7 165 -7 317 -1 232 1
279 14 291 19 19 151 32 202 20 34 -8 39 -13 54 -63 15 -47 17 -51 18 -24 1
17 -2 51 -5 75 l-6 44 -333 0 -333 0 -7 -73z m343 -290 c2 -337 2 -342 -18
-342 -20 0 -20 6 -20 338 0 186 3 342 7 346 24 24 28 -16 31 -342z"/>
<path d="M1480 1245 c8 -2 31 -6 51 -10 29 -4 38 -11 44 -32 8 -34 8 -552 -1
-608 l-6 -42 -56 -10 c-48 -9 -29 -10 123 -10 164 0 175 1 120 11 l-60 12 -8
59 c-4 33 -6 101 -5 150 l3 90 47 3 c61 4 91 -22 189 -164 95 -138 118 -156
212 -161 68 -4 70 -3 42 10 -39 19 -58 40 -145 167 -82 118 -118 160 -137 160
-7 0 -13 5 -13 10 0 6 8 10 18 10 28 0 74 36 99 77 58 96 -7 236 -126 272 -23
7 -110 11 -222 10 -101 -1 -177 -3 -169 -4z m379 -31 c117 -59 146 -204 56
-283 -20 -17 -41 -31 -48 -31 -6 0 -1 7 12 16 53 38 67 141 28 214 -26 50 -56
75 -113 95 -32 12 -35 14 -13 15 14 0 49 -12 78 -26z m-229 -324 c0 -296 -2
-340 -15 -340 -13 0 -15 44 -15 340 0 296 2 340 15 340 13 0 15 -44 15 -340z
m194 306 c55 -32 86 -88 86 -157 0 -100 -55 -149 -169 -149 l-61 0 0 104 c0
56 3 131 6 165 l7 61 45 0 c30 0 59 -8 86 -24z m67 -383 c14 -15 57 -73 96
-129 39 -55 82 -108 95 -117 17 -12 19 -16 7 -16 -35 -2 -86 49 -166 164 -46
66 -90 125 -98 131 -25 19 -17 25 13 10 15 -8 39 -27 53 -43z"/>
<path d="M2992 1241 c27 -4 54 -13 60 -19 15 -15 19 -517 5 -613 l-8 -56 -57
-10 c-44 -8 9 -10 233 -9 l290 1 11 85 c6 47 10 87 8 89 -3 4 -32 -64 -40 -96
-3 -12 -13 -28 -21 -35 -21 -17 -203 -17 -261 0 l-43 13 3 314 c2 172 6 316
10 320 3 3 28 10 55 15 34 5 -2 8 -122 7 -97 0 -150 -3 -123 -6z m123 -347 c0
-315 -1 -339 -17 -342 -17 -3 -18 18 -18 336 0 186 3 342 7 346 25 24 28 -16
28 -340z"/>
<path d="M3485 1245 c6 -2 27 -6 47 -10 32 -5 44 -16 91 -83 30 -42 85 -126
123 -187 l68 -110 0 -115 c0 -63 -4 -131 -7 -151 -7 -34 -9 -36 -65 -46 -48
-9 -28 -10 128 -10 158 0 176 1 123 10 -61 10 -63 11 -70 46 -4 20 -7 86 -7
148 l0 112 59 88 c32 48 91 134 132 190 67 93 77 103 116 111 34 8 16 10 -88
9 -71 0 -116 -2 -100 -4 17 -2 44 -6 62 -9 l32 -5 -44 -73 c-53 -87 -166 -239
-181 -243 -12 -4 -101 126 -163 239 l-42 77 48 6 c88 12 79 13 -97 13 -96 0
-170 -1 -165 -3z m141 -13 c5 -4 61 -88 122 -187 l112 -179 0 -158 c0 -134 -2
-158 -15 -158 -13 0 -15 24 -15 153 l0 154 -115 182 c-63 100 -115 187 -115
192 0 11 11 11 26 1z"/>
<path d="M5530 870 c0 -4 20 -28 45 -52 25 -25 45 -54 45 -64 0 -63 -98 -129
-240 -161 -104 -24 -375 -24 -480 0 -157 35 -258 112 -233 177 8 20 7 36 -3
59 -13 31 -27 37 -58 25 -15 -6 -15 -8 1 -19 15 -11 15 -15 4 -29 -8 -9 -16
-14 -19 -12 -2 3 -11 -1 -18 -9 -8 -8 -34 -17 -59 -20 -51 -8 -84 -35 -43 -35
49 0 88 -20 88 -45 0 -13 -6 -27 -12 -31 -17 -11 -80 -5 -97 9 -11 10 -13 9
-9 -3 3 -9 20 -16 41 -18 46 -4 47 -14 2 -35 -32 -15 -35 -20 -35 -60 0 -65
23 -82 90 -68 71 15 144 14 187 -4 31 -13 34 -13 23 0 -28 33 -140 42 -237 18
-20 -4 -23 -1 -23 25 0 26 5 32 36 42 53 18 164 16 206 -4 57 -27 64 -48 52
-163 -6 -59 -5 -62 17 -67 102 -24 108 -24 124 -6 8 9 39 30 68 46 49 27 59
29 162 29 105 0 113 -1 168 -32 32 -18 53 -25 46 -17 -22 27 -105 63 -168 73
-97 16 -182 -4 -263 -61 l-28 -19 0 23 c0 52 107 116 210 125 90 8 194 -22
272 -80 23 -17 28 -28 28 -64 0 -48 1 -49 85 -30 46 11 50 14 53 45 2 19 -6
52 -19 79 -28 57 -19 91 31 115 41 21 151 24 230 7 47 -10 51 -13 48 -37 -3
-24 -7 -27 -38 -25 -149 9 -196 7 -225 -10 -16 -10 -21 -15 -10 -11 41 15 151
15 212 1 62 -14 63 -14 78 9 8 13 15 42 15 64 0 39 -2 41 -55 67 -30 15 -55
31 -55 36 0 6 22 7 50 4 36 -4 50 -3 50 6 0 8 -19 11 -65 9 -59 -3 -65 -2 -65
16 0 28 18 39 73 47 59 9 49 29 -18 38 -47 7 -129 40 -140 56 -3 6 3 14 12 20
15 8 16 10 3 15 -28 9 -140 14 -140 6z"/>
<path d="M5975 475 c-14 -13 -25 -32 -25 -42 0 -27 28 -63 49 -63 30 0 32 12
5 32 -31 25 -29 62 3 66 17 2 26 -4 35 -23 12 -27 31 -29 36 -2 4 21 -33 57
-58 57 -12 0 -32 -11 -45 -25z"/>
<path d="M4359 483 c0 -4 -2 -21 -2 -38 -3 -42 -40 -43 -47 -1 -7 38 -30 47
-30 11 0 -29 43 -75 70 -75 29 0 42 25 34 64 -6 33 -23 59 -25 39z"/>
<path d="M5826 411 c-3 -5 1 -12 10 -15 11 -4 13 -12 8 -28 -11 -35 -7 -61 13
-75 33 -25 93 12 93 57 0 32 -17 50 -46 50 -13 0 -26 5 -29 10 -8 12 -42 13
-49 1z m92 -52 c12 -18 11 -24 -1 -37 -29 -28 -73 12 -47 43 17 21 33 19 48
-6z"/>
<path d="M4413 398 c2 -7 13 -12 25 -11 23 3 47 -21 37 -37 -4 -6 -15 -8 -26
-5 -21 7 -25 -5 -7 -23 10 -9 9 -16 -4 -29 -14 -14 -19 -14 -33 -3 -9 8 -14
22 -12 31 5 19 -15 43 -26 32 -30 -29 22 -93 75 -93 28 0 30 2 26 30 -4 23 -1
30 13 30 37 0 30 58 -11 80 -27 14 -63 13 -57 -2z"/>
<path d="M4605 330 c-3 -5 -21 -10 -40 -10 -36 0 -75 -36 -75 -71 0 -27 47
-77 81 -84 64 -14 110 57 73 113 -10 15 -17 32 -16 39 3 15 -15 26 -23 13z
m-30 -56 c-14 -22 -15 -28 -4 -35 10 -6 18 0 27 17 14 26 32 24 32 -4 0 -28
-29 -62 -52 -62 -26 0 -58 27 -58 49 0 26 29 61 52 61 20 0 20 -1 3 -26z"/>
<path d="M5732 300 c-22 -20 -28 -41 -16 -53 11 -11 33 5 27 20 -5 14 11 32
30 33 11 0 47 -62 47 -82 0 -24 -38 -34 -53 -14 -8 11 -17 13 -26 7 -12 -8
-12 -12 -2 -25 19 -22 63 -20 89 4 28 26 28 49 1 94 -25 42 -62 48 -97 16z"/>
<path d="M5624 246 c-4 -9 -18 -16 -35 -16 -15 0 -32 -6 -36 -12 -4 -7 -21
-13 -37 -13 -16 0 -33 -7 -39 -16 -16 -25 0 -68 27 -75 15 -4 23 -11 19 -19
-4 -12 1 -12 29 -3 18 6 47 12 63 13 65 5 62 4 45 15 -9 6 -39 8 -71 4 -61 -6
-89 8 -89 47 0 25 30 25 37 -1 8 -31 35 -25 31 7 -4 35 27 45 37 13 9 -30 30
-19 30 16 0 40 27 38 41 -4 9 -30 12 -32 24 -17 12 14 12 21 -1 43 -17 32 -66
43 -75 18z"/>
<path d="M4691 237 c-20 -25 -25 -73 -7 -80 12 -5 16 0 16 16 0 13 6 31 13 42
20 26 40 10 33 -26 -4 -22 -2 -29 10 -29 9 0 18 9 21 20 3 11 12 20 19 20 23
0 28 -28 10 -55 -22 -33 0 -47 26 -15 35 44 14 97 -36 88 -15 -3 -27 1 -35 14
-13 21 -54 24 -70 5z"/>
<path d="M4942 207 c-7 -8 -15 -34 -18 -59 -6 -40 -4 -47 17 -62 13 -9 33 -16
46 -16 24 0 53 34 53 62 0 22 -42 50 -64 42 -11 -4 -16 -1 -16 11 0 13 8 16
38 13 20 -1 37 2 37 7 0 16 -80 18 -93 2z m62 -70 c13 -21 -15 -53 -38 -44
-19 8 -21 38 -4 55 15 15 28 11 42 -11z"/>
<path d="M5275 210 c-3 -5 -17 -7 -31 -4 -37 9 -54 -11 -54 -67 0 -54 18 -79
56 -79 56 0 78 34 54 81 -12 21 -50 25 -68 7 -9 -9 -12 -6 -12 16 0 25 3 27
28 21 30 -6 63 17 43 29 -5 4 -12 2 -16 -4z m0 -100 c0 -18 -6 -26 -23 -28
-13 -2 -25 3 -28 12 -10 26 4 48 28 44 17 -2 23 -10 23 -28z"/>
<path d="M5352 168 c-18 -18 -16 -87 3 -95 22 -8 26 -1 16 33 -10 37 -4 54 19
54 23 0 31 -12 32 -50 1 -35 13 -39 28 -10 18 34 -8 74 -50 78 -19 2 -41 -3
-48 -10z"/>
<path d="M5106 148 c4 -7 14 -21 22 -30 7 -9 11 -22 7 -27 -10 -16 -45 -13
-45 4 0 16 -25 21 -34 7 -8 -13 8 -30 38 -42 23 -8 34 -7 52 5 30 20 30 45 1
73 -25 24 -53 30 -41 10z"/>
</g>
</svg>
